<svg width="66" height="66" viewBox="0 0 66 66" fill="none" xmlns="http://www.w3.org/2000/svg">
<path d="M19.1219 1.22498H46.9794C56.9155 1.22505 64.9705 9.2801 64.9706 19.2162V47.0736C64.9705 57.0097 56.9155 65.0647 46.9794 65.0648H19.1219C9.18586 65.0647 1.13081 57.0097 1.13074 47.0736V19.2162C1.13081 9.2801 9.18586 1.22505 19.1219 1.22498Z" fill="#FAFAFA"/>
<path d="M19.1219 1.22498H46.9794C56.9155 1.22505 64.9705 9.2801 64.9706 19.2162V47.0736C64.9705 57.0097 56.9155 65.0647 46.9794 65.0648H19.1219C9.18586 65.0647 1.13081 57.0097 1.13074 47.0736V19.2162C1.13081 9.2801 9.18586 1.22505 19.1219 1.22498Z" stroke="#EEEEEE" stroke-width="1.16071"/>
<path fill-rule="evenodd" clip-rule="evenodd" d="M33.0506 20.9574C26.3181 20.9574 20.8631 26.4124 20.8631 33.1449C20.8631 38.5285 24.3543 43.0988 29.1984 44.7095C29.8093 44.8206 30.0315 44.4477 30.0315 44.1224C30.0315 43.8328 30.0196 43.0671 30.0156 42.0515C26.6236 42.7854 25.9095 40.4169 25.9095 40.4169C25.3541 39.0085 24.5566 38.6317 24.5566 38.6317C23.4498 37.8779 24.64 37.8937 24.64 37.8937C25.8619 37.981 26.5046 39.1474 26.5046 39.1474C27.5916 41.012 29.3571 40.4725 30.0513 40.163C30.1624 39.3735 30.4798 38.838 30.825 38.5325C28.1193 38.227 25.2747 37.1796 25.2747 32.5101C25.2747 31.1771 25.7508 30.0901 26.5284 29.2371C26.4054 28.9316 25.9849 27.6899 26.6474 26.0117C26.6474 26.0117 27.671 25.6864 29.9998 27.2614C30.9717 26.9916 32.0151 26.8568 33.0506 26.8528C34.0861 26.8568 35.1295 26.9916 36.1014 27.2614C38.4302 25.6864 39.4498 26.0117 39.4498 26.0117C40.1163 27.6899 39.6998 28.9316 39.5728 29.2371C40.3544 30.0901 40.8225 31.1771 40.8225 32.5101C40.8225 37.1915 37.974 38.2191 35.2604 38.5245C35.6968 38.8975 36.0856 39.6433 36.0856 40.778C36.0856 42.4085 36.0737 43.7217 36.0737 44.1224C36.0737 44.4477 36.2919 44.8286 36.9108 44.7095C41.7509 43.0948 45.2381 38.5285 45.2381 33.1449C45.2381 26.4124 39.7831 20.9574 33.0506 20.9574Z" fill="black"/>
</svg>
