<svg width="66" height="66" viewBox="0 0 66 66" fill="none" xmlns="http://www.w3.org/2000/svg">
<path d="M18.9481 1.22498H46.8055C56.7416 1.22505 64.7966 9.2801 64.7967 19.2162V47.0736C64.7966 57.0097 56.7416 65.0647 46.8055 65.0648H18.9481C9.01198 65.0647 0.956922 57.0097 0.956848 47.0736V19.2162C0.956923 9.2801 9.01198 1.22505 18.9481 1.22498Z" fill="#FAFAFA"/>
<path d="M18.9481 1.22498H46.8055C56.7416 1.22505 64.7966 9.2801 64.7967 19.2162V47.0736C64.7966 57.0097 56.7416 65.0647 46.8055 65.0648H18.9481C9.01198 65.0647 0.956922 57.0097 0.956848 47.0736V19.2162C0.956923 9.2801 9.01198 1.22505 18.9481 1.22498Z" stroke="#EEEEEE" stroke-width="1.16071"/>
<path d="M45.0643 41.947C45.0643 43.8171 43.549 45.3324 41.6789 45.3324H24.0747C22.2053 45.3324 20.6893 43.8171 20.6893 41.947V24.3428C20.6893 22.4727 22.2053 20.9574 24.0747 20.9574H41.6789C43.549 20.9574 45.0643 22.4727 45.0643 24.3428V41.947Z" fill="#0078D4"/>
<path opacity="0.05" d="M36.9394 41.9469V35.1091C36.9394 33.9655 36.3849 33.2823 35.4552 33.2823C34.9034 33.2823 34.4978 33.5931 34.2507 34.2058C34.2392 34.2492 34.223 34.4259 34.2297 34.9601L34.2311 41.9469H29.4915V29.0824H34.2311V29.8007C34.9231 29.3234 35.7714 29.0824 36.762 29.0824C39.8407 29.0824 41.6783 31.1766 41.6783 34.6845L41.679 41.9469H36.9394ZM24.0748 41.9469V29.0824H26.4155C25.0593 29.0824 24.0748 28.0857 24.0748 26.7119C24.0748 25.3394 25.0756 24.3428 26.4541 24.3428C27.8164 24.3428 28.7867 25.3117 28.8144 26.6983C28.8144 28.0823 27.813 29.0824 26.4345 29.0824H28.8144V41.9469H24.0748Z" fill="black"/>
<path opacity="0.07" d="M37.2778 41.6085V35.1092C37.2778 33.7733 36.5797 32.9438 35.4551 32.9438C34.5783 32.9438 34.1449 33.5613 33.9364 34.0793C33.8809 34.2141 33.8883 34.7489 33.891 34.9771L33.8924 41.6085H29.8299V29.421H33.8924V30.53C34.4307 29.9728 35.2973 29.421 36.7619 29.421C39.6279 29.421 41.3396 31.3886 41.3396 34.6846L41.3403 41.6085H37.2778ZM24.4132 41.6085V29.421H28.4757V41.6085H24.4132ZM26.4153 28.7439C25.2555 28.7439 24.4132 27.8894 24.4132 26.712C24.4132 25.5352 25.2717 24.6814 26.4539 24.6814C27.6212 24.6814 28.452 25.5135 28.4757 26.7052C28.4757 27.8894 27.6172 28.7439 26.4343 28.7439H26.4153Z" fill="black"/>
<path d="M24.7518 29.7595H28.1372V41.2699H24.7518V29.7595ZM26.4344 28.4053H26.4154C25.4052 28.4053 24.7518 27.6524 24.7518 26.7119C24.7518 25.7511 25.4255 25.0199 26.454 25.0199C27.4839 25.0199 28.1183 25.7511 28.1372 26.7119C28.1372 27.6517 27.4839 28.4053 26.4344 28.4053ZM41.0018 41.2699H37.6164V35.1091C37.6164 33.6209 36.787 32.6053 35.4552 32.6053C34.4389 32.6053 33.8891 33.2905 33.6223 33.9527C33.5248 34.1896 33.5539 34.8451 33.5539 35.1761V41.2699H30.1685V29.7595H33.5539V31.5307C34.0421 30.7751 34.8065 29.7595 36.7619 29.7595C39.1845 29.7595 41.0012 31.2829 41.0012 34.6846L41.0018 41.2699Z" fill="white"/>
</svg>
