<svg width="66" height="66" viewBox="0 0 66 66" fill="none" xmlns="http://www.w3.org/2000/svg">
<path d="M19.2959 1.22498H47.1533C57.0894 1.22505 65.1445 9.2801 65.1445 19.2162V47.0736C65.1445 57.0097 57.0894 65.0647 47.1533 65.0648H19.2959C9.35981 65.0647 1.30476 57.0097 1.30469 47.0736V19.2162C1.30476 9.2801 9.35981 1.22505 19.2959 1.22498Z" fill="#FAFAFA"/>
<path d="M19.2959 1.22498H47.1533C57.0894 1.22505 65.1445 9.2801 65.1445 19.2162V47.0736C65.1445 57.0097 57.0894 65.0647 47.1533 65.0648H19.2959C9.35981 65.0647 1.30476 57.0097 1.30469 47.0736V19.2162C1.30476 9.2801 9.35981 1.22505 19.2959 1.22498Z" stroke="#EEEEEE" stroke-width="1.16071"/>
<g clip-path="url(#clip0_2225_1128)">
<path d="M49.1332 23.7158C48.7893 23.5472 48.641 23.8689 48.4392 24.032C48.3702 24.0848 48.3119 24.1532 48.2537 24.2162C47.7506 24.7538 47.1629 25.1066 46.3944 25.0646C45.2718 25.0016 44.3131 25.3544 43.4654 26.2129C43.2853 25.154 42.6867 24.5216 41.7761 24.116C41.2994 23.9054 40.8173 23.6942 40.4835 23.2358C40.2506 22.9094 40.1869 22.5458 40.0705 22.1877C39.996 21.9717 39.9222 21.7503 39.673 21.7137C39.4029 21.6717 39.2973 21.8979 39.191 22.0881C38.7671 22.8627 38.6032 23.7165 38.6188 24.5805C38.6561 26.5244 39.4767 28.0735 41.1078 29.1745C41.2933 29.3011 41.3407 29.427 41.2825 29.6119C41.1714 29.991 41.0387 30.3601 40.9223 30.7392C40.8478 30.9816 40.7367 31.0344 40.4774 30.9288C39.5823 30.5551 38.8091 30.0019 38.1259 29.3322C36.9661 28.2103 35.9173 26.9719 34.6091 26.0023C34.3017 25.7755 33.995 25.565 33.6768 25.3645C32.3423 24.0686 33.8515 23.0042 34.2008 22.8776C34.5665 22.7456 34.3281 22.2926 33.1466 22.298C31.9658 22.3034 30.8852 22.6982 29.508 23.225C29.3069 23.3042 29.095 23.3617 28.8776 23.4091C27.6277 23.1721 26.3298 23.1193 24.9742 23.2723C22.4216 23.5567 20.3823 24.7633 18.8832 26.8237C17.0822 29.2997 16.659 32.113 17.1776 35.0482C17.7233 38.1411 19.3016 40.7012 21.7269 42.7033C24.243 44.7792 27.1395 45.7962 30.4451 45.6012C32.4526 45.4854 34.6877 45.2166 37.2085 43.0831C37.8442 43.3993 38.5112 43.5259 39.6182 43.6207C40.4706 43.7 41.2919 43.5788 41.9277 43.4467C42.9237 43.2362 42.8546 42.314 42.4944 42.1454C39.9953 41.2699 39.6371 40.8914 39.6371 40.8914C41.12 39.1371 43.355 37.3137 44.2291 31.4075C44.2982 30.939 44.24 30.6438 44.2291 30.2639C44.2237 30.0324 44.2765 29.9423 44.5419 29.9159C45.2725 29.8313 45.9828 29.6315 46.6341 29.2733C48.5252 28.2408 49.2876 26.544 49.4677 24.5107C49.4935 24.2006 49.4616 23.879 49.1332 23.7158ZM32.6564 42.0194C29.8282 39.7959 28.4565 39.064 27.8898 39.0951C27.3603 39.1269 27.4557 39.7329 27.5722 40.1277C27.6941 40.5177 27.8532 40.7865 28.0753 41.1284C28.229 41.3552 28.3346 41.6924 27.9216 41.945C27.0109 42.509 25.4272 41.7554 25.3527 41.7181C23.5097 40.6328 21.9687 39.1994 20.8826 37.2399C19.8338 35.3535 19.2251 33.3304 19.1242 31.1705C19.0978 30.6492 19.2515 30.4643 19.7702 30.3695C20.4533 30.2429 21.1575 30.2165 21.8414 30.3167C24.7278 30.7385 27.1856 32.0291 29.246 34.0732C30.422 35.2378 31.3117 36.6285 32.2278 37.9881C33.2021 39.4316 34.2509 40.8068 35.5855 41.9341C36.0567 42.3295 36.4332 42.6295 36.7927 42.8509C35.7074 42.9728 33.8955 42.9992 32.6564 42.0194ZM34.0126 33.2993C34.0126 33.0677 34.1981 32.8829 34.4311 32.8829C34.4839 32.8829 34.5319 32.893 34.5739 32.9093C34.6321 32.9303 34.685 32.9621 34.7276 33.0095C34.8021 33.0833 34.8441 33.1889 34.8441 33.2993C34.8441 33.5308 34.6586 33.7157 34.4256 33.7157C34.1927 33.7157 34.0126 33.5315 34.0126 33.2993ZM38.2227 35.4598C37.9526 35.5702 37.6824 35.665 37.4231 35.6758C37.0202 35.6968 36.5808 35.5337 36.3425 35.3332C35.9714 35.0225 35.7067 34.8484 35.5956 34.3061C35.5482 34.0745 35.5746 33.7157 35.6166 33.5105C35.7121 33.0677 35.6058 32.7833 35.2937 32.5254C35.0391 32.3148 34.7161 32.2566 34.3613 32.2566C34.2286 32.2566 34.1074 32.1983 34.0174 32.1509C33.8691 32.0771 33.7472 31.893 33.8637 31.6662C33.9009 31.5924 34.081 31.4136 34.123 31.3818C34.6051 31.1076 35.1609 31.1976 35.6749 31.4028C36.1515 31.5978 36.5117 31.9559 37.0311 32.4617C37.5605 33.0731 37.656 33.2417 37.958 33.7001C38.1963 34.0583 38.4137 34.4273 38.5619 34.8484C38.652 35.1118 38.5355 35.3278 38.2227 35.4598Z" fill="#536DFE"/>
</g>
<defs>
<clipPath id="clip0_2225_1128">
<rect width="32.5" height="32.5" fill="white" transform="translate(16.9746 16.8949)"/>
</clipPath>
</defs>
</svg>
