<svg width="66" height="66" viewBox="0 0 66 66" fill="none" xmlns="http://www.w3.org/2000/svg">
<path d="M19.4698 1.22498H47.3272C57.2633 1.22505 65.3183 9.2801 65.3184 19.2162V47.0736C65.3183 57.0097 57.2633 65.0647 47.3272 65.0648H19.4698C9.5337 65.0647 1.47865 57.0097 1.47858 47.0736V19.2162C1.47865 9.2801 9.5337 1.22505 19.4698 1.22498Z" fill="#FAFAFA"/>
<path d="M19.4698 1.22498H47.3272C57.2633 1.22505 65.3183 9.2801 65.3184 19.2162V47.0736C65.3183 57.0097 57.2633 65.0647 47.3272 65.0648H19.4698C9.5337 65.0647 1.47865 57.0097 1.47858 47.0736V19.2162C1.47865 9.2801 9.5337 1.22505 19.4698 1.22498Z" stroke="#EEEEEE" stroke-width="1.16071"/>
<g clip-path="url(#clip0_2225_1125)">
<path d="M36.8076 33.1449C36.7934 32.9221 36.7839 32.6973 36.7839 32.4678C36.7839 28.3511 38.7204 25.6969 41.5235 25.6969C43.833 25.6969 45.8094 27.4993 46.2631 30.4365H47.6172L47.6179 24.3428H46.2631C46.2631 24.3428 45.9022 25.3625 45.586 25.1282C44.3002 24.4064 43.0652 24.3617 41.5072 24.3617C37.5802 24.3617 34.0756 27.9042 34.0756 32.4136C34.0756 32.6601 34.0898 32.9031 34.1088 33.1449H32.6876C32.7072 32.9031 32.7214 32.6601 32.7214 32.4136C32.7214 27.9042 29.2168 24.3617 25.2897 24.3617C23.7318 24.3617 22.4968 24.4057 21.211 25.1282C20.8948 25.3625 20.5339 24.3428 20.5339 24.3428H19.1791L19.1797 30.4365H20.5339C20.9876 27.4993 22.964 25.6969 25.2735 25.6969C28.0766 25.6969 30.0131 28.3511 30.0131 32.4678C30.0131 32.6973 30.0036 32.9221 29.9894 33.1449H17.1485V34.499H17.8317C18.565 34.499 19.1703 35.082 19.1852 35.8146C19.2109 37.0645 19.3314 38.5656 19.8568 39.2386C20.7161 40.3389 21.8881 41.2699 25.2735 41.2699C28.6738 41.2699 31.9902 38.2047 32.7214 34.499H34.0756C34.8068 38.2047 38.1232 41.2699 41.5235 41.2699C44.9089 41.2699 46.0809 40.3389 46.9402 39.2386C47.4656 38.5656 47.5861 37.0645 47.6118 35.8146C47.6267 35.082 48.2327 34.499 48.9653 34.499H49.6485V33.1449H36.8076ZM24.9194 39.7329C23.8327 39.7329 22.1061 39.7288 21.8881 38.5615C21.8143 38.1668 21.8265 36.8505 21.8495 35.822C21.8664 35.0861 22.467 34.499 23.2037 34.499H30.0131C29.4755 37.7362 27.3149 39.7329 24.9194 39.7329ZM44.9089 38.5615C44.6909 39.7288 42.9643 39.7329 41.8776 39.7329C39.4828 39.7329 37.3215 37.7362 36.7839 34.499H43.5933C44.33 34.499 44.9306 35.0861 44.9475 35.822C44.9705 36.8505 44.9827 38.1668 44.9089 38.5615Z" fill="#43A047"/>
</g>
<defs>
<clipPath id="clip0_2225_1125">
<rect width="32.5" height="32.5" fill="white" transform="translate(17.1485 16.8949)"/>
</clipPath>
</defs>
</svg>
