<svg width="66" height="66" viewBox="0 0 66 66" fill="none" xmlns="http://www.w3.org/2000/svg">
<path d="M18.7742 1.22498H46.6316C56.5677 1.22505 64.6227 9.2801 64.6228 19.2162V47.0736C64.6227 57.0097 56.5677 65.0647 46.6316 65.0648H18.7742C8.83809 65.0647 0.783033 57.0097 0.782959 47.0736V19.2162C0.783034 9.2801 8.83809 1.22505 18.7742 1.22498Z" fill="#FAFAFA"/>
<path d="M18.7742 1.22498H46.6316C56.5677 1.22505 64.6227 9.2801 64.6228 19.2162V47.0736C64.6227 57.0097 56.5677 65.0647 46.6316 65.0648H18.7742C8.83809 65.0647 0.783033 57.0097 0.782959 47.0736V19.2162C0.783034 9.2801 8.83809 1.22505 18.7742 1.22498Z" stroke="#EEEEEE" stroke-width="1.16071"/>
<path d="M32.7027 23.8591V42.4306M41.9884 33.1448H23.417" stroke="#BDBDBD" stroke-width="1.74107" stroke-linecap="round" stroke-linejoin="round"/>
</svg>
