<svg width="66" height="66" viewBox="0 0 66 66" fill="none" xmlns="http://www.w3.org/2000/svg">
<path d="M18.8176 1.22498H46.675C56.6111 1.22505 64.6662 9.2801 64.6663 19.2162V47.0736C64.6662 57.0097 56.6111 65.0647 46.675 65.0648H18.8176C8.88154 65.0647 0.82649 57.0097 0.826416 47.0736V19.2162C0.826491 9.2801 8.88154 1.22505 18.8176 1.22498Z" fill="#FAFAFA"/>
<path d="M18.8176 1.22498H46.675C56.6111 1.22505 64.6662 9.2801 64.6663 19.2162V47.0736C64.6662 57.0097 56.6111 65.0647 46.675 65.0648H18.8176C8.88154 65.0647 0.82649 57.0097 0.826416 47.0736V19.2162C0.826491 9.2801 8.88154 1.22505 18.8176 1.22498Z" stroke="#EEEEEE" stroke-width="1.16071"/>
<path d="M45.7462 39.848C45.4754 41.2699 44.3243 42.3532 42.9024 42.5564C40.6681 42.8949 36.9441 43.3011 32.7462 43.3011C28.616 43.3011 24.892 42.8949 22.5899 42.5564C21.1681 42.3532 20.017 41.2699 19.7462 39.848C19.4754 38.2907 19.2045 35.9886 19.2045 33.1449C19.2045 30.3011 19.4754 27.9991 19.7462 26.4418C20.017 25.0199 21.1681 23.9366 22.5899 23.7334C24.8243 23.3949 28.5483 22.9886 32.7462 22.9886C36.9441 22.9886 40.6004 23.3949 42.9024 23.7334C44.3243 23.9366 45.4754 25.0199 45.7462 26.4418C46.017 27.9991 46.3556 30.3011 46.3556 33.1449C46.2879 35.9886 46.017 38.2907 45.7462 39.848Z" fill="#FF3D00"/>
<path d="M30.0381 37.8844V28.4053L38.1631 33.1449L30.0381 37.8844Z" fill="white"/>
</svg>
