<svg xmlns="http://www.w3.org/2000/svg" viewBox="0 0 48 48" width="24" height="24">
  <path fill="#EA4335" d="M24 9.5c3.54 0 6.7 1.22 9.18 3.6l6.84-6.84C36.64 2.53 30.78 0 24 0 14.63 0 6.4 5.38 2.56 13.22l7.96 6.19C12.27 13.51 17.68 9.5 24 9.5z"></path>
  <path fill="#34A853" d="M46.1 24.5c0-1.64-.15-3.21-.43-4.74H24v9.48h12.4c-.55 2.95-2.18 5.46-4.6 7.17l7.14 5.56C43.67 37.02 46.1 31.19 46.1 24.5z"></path>
  <path fill="#4A90E2" d="M9.96 28.41A14.52 14.52 0 0 1 9.5 24c0-1.52.26-2.99.73-4.36l-7.96-6.19A23.85 23.85 0 0 0 0 24c0 3.88.93 7.55 2.56 10.81l7.4-6.4z"></path>
  <path fill="#FBBC05" d="M24 48c6.48 0 11.92-2.15 15.9-5.86l-7.14-5.56C30.36 38.38 27.34 39.5 24 39.5c-6.32 0-11.73-4.01-13.48-9.51l-7.96 6.19C6.4 42.62 14.63 48 24 48z"></path>
</svg>
